<svg width="571" height="142" viewBox="0 0 571 142" fill="none" xmlns="http://www.w3.org/2000/svg">
<path d="M92.8704 123L43 72.9767" stroke="#eaeaea" stroke-width="4" stroke-linecap="round"/>
<path d="M93 23L43.1296 73.0233" stroke="#eaeaea" stroke-width="4" stroke-linecap="round"/>
<path d="M395 119.969L429.202 26" stroke="#eaeaea" stroke-width="4" stroke-linecap="round"/>
<path d="M450 123L500 73.1021" stroke="#eaeaea" stroke-width="4" stroke-linecap="round"/>
<path d="M450 23L500 72.8979" stroke="#eaeaea" stroke-width="4" stroke-linecap="round"/>
<path d="M117.48 109H105.96V38.44H117.48V109ZM187.286 58.6L167.702 109H153.014L134.006 58.6H145.526L159.206 100.648H162.086L175.766 58.6H187.286ZM249.195 109H239.115V101.656L230.475 109H208.875C206.091 109 203.691 108.04 201.675 106.12C199.755 104.104 198.795 101.704 198.795 98.92V88.84C198.795 86.056 199.755 83.704 201.675 81.784C203.691 79.768 206.091 78.76 208.875 78.76H237.675L229.035 87.256H208.875V100.36H239.115V67.24H198.795L207.435 58.6H239.115C241.899 58.6 244.251 59.608 246.171 61.624C248.187 63.544 249.195 65.896 249.195 68.68V109ZM280.819 109H270.739V35.56L280.819 25.48V109ZM352.886 109H342.806V101.8L335.606 109H312.566C309.782 109 307.382 108.04 305.366 106.12C303.446 104.104 302.486 101.704 302.486 98.92V68.68C302.486 65.896 303.446 63.544 305.366 61.624C307.382 59.608 309.782 58.6 312.566 58.6H342.806V35.56L352.886 25.48V109ZM342.806 100.36V60.04L335.606 67.24H312.566V100.36H342.806ZM384.566 49.96H374.486V38.44H384.566V49.96ZM384.566 109H374.486V65.8L384.566 55.72V109Z" fill="white"/>
</svg>
